<svg xmlns="http://www.w3.org/2000/svg" viewBox="0 0 64 64">
  <defs>
    <linearGradient id="bg" x1="0" y1="0" x2="1" y2="1">
      <stop offset="0%" stop-color="#111111" />
      <stop offset="100%" stop-color="#1f1f21" />
    </linearGradient>
    <linearGradient id="ring" x1="0" y1="0" x2="1" y2="1">
      <stop offset="0%" stop-color="#ffffff" stop-opacity="0.85" />
      <stop offset="100%" stop-color="#f1f1f5" stop-opacity="0.75" />
    </linearGradient>
  </defs>
  <rect width="64" height="64" rx="16" fill="url(#bg)" />
  <circle cx="32" cy="32" r="20" fill="none" stroke="url(#ring)" stroke-width="6" />
  <path d="M32 17c8 0 14 6 14 14 0 5.4-3 10-7.4 12.3l4.6 6.7-5.3 0.1-3.8-5.6c-0.7 0.1-1.5 0.1-2.1 0.1-8 0-14-6-14-13.6C18 23.2 24 17 32 17zm0 6.2c-4.5 0-7.8 3.4-7.8 7.8 0 4.2 3.3 7.6 7.8 7.6 4.4 0 7.8-3.4 7.8-7.8 0-4.3-3.3-7.6-7.8-7.6z" fill="#ffffff" fill-rule="evenodd" />
</svg>
